PathFileType	4	(X/Y/Z)	data/andrienko/jump_jo 3.trc
DataRate	CameraRate	NumFrames	NumMarkers	Units	OrigDataRate	OrigDataStartFrame	OrigNumFrames
400	400	4	71	mm	400	286	456
Frame#	Time	r_asis			l_asis			r_psis			sacrum			l_psis			r_illiac			r_troch			l_illiac			l_troch			r_thigh1			r_thigh2			r_thigh3			r_thigh4			rl_knee			rm_knee			r_shank1			r_shank2			r_shank3			r_shank4			r_heel			rl_ankle			rm_ankle			r_metatarsal5			r_metatarsal1			l_thigh1			l_thigh2			l_thigh3			l_thigh4			ll_knee			lm_knee			l_shank1			l_shank2			l_shank3			l_shank4			l_heel			ll_ankle			lm_ankle			l_metatarsal5			l_metatarsal1			back_down			neck			back_right			back_left			head_up			head_front			head_left			head_right			r_shoulder			r_humerus1			r_humerus2			r_humerus3			rl_elbow			rm_elbow			r_radius1			r_radius2			r_radius3			rl_wrist			rm_wrist			r_hand			l_shoulder			l_humerus1			l_humerus2			l_humerus3			ll_elbow			lm_elbow			l_radius1			l_radius2			l_radius3			ll_wrist			lm_wrist			l_hand		
		X1	Y1	Z1	X2	Y2	Z2	X3	Y3	Z3	X4	Y4	Z4	X5	Y5	Z5	X6	Y6	Z6	X7	Y7	Z7	X8	Y8	Z8	X9	Y9	Z9	X10	Y10	Z10	X11	Y11	Z11	X12	Y12	Z12	X13	Y13	Z13	X14	Y14	Z14	X15	Y15	Z15	X16	Y16	Z16	X17	Y17	Z17	X18	Y18	Z18	X19	Y19	Z19	X20	Y20	Z20	X21	Y21	Z21	X22	Y22	Z22	X23	Y23	Z23	X24	Y24	Z24	X25	Y25	Z25	X26	Y26	Z26	X27	Y27	Z27	X28	Y28	Z28	X29	Y29	Z29	X30	Y30	Z30	X31	Y31	Z31	X32	Y32	Z32	X33	Y33	Z33	X34	Y34	Z34	X35	Y35	Z35	X36	Y36	Z36	X37	Y37	Z37	X38	Y38	Z38	X39	Y39	Z39	X40	Y40	Z40	X41	Y41	Z41	X42	Y42	Z42	X43	Y43	Z43	X44	Y44	Z44	X45	Y45	Z45	X46	Y46	Z46	X47	Y47	Z47	X48	Y48	Z48	X49	Y49	Z49	X50	Y50	Z50	X51	Y51	Z51	X52	Y52	Z52	X53	Y53	Z53	X54	Y54	Z54	X55	Y55	Z55	X56	Y56	Z56	X57	Y57	Z57	X58	Y58	Z58	X59	Y59	Z59	X60	Y60	Z60	X61	Y61	Z61	X62	Y62	Z62	X63	Y63	Z63	X64	Y64	Z64	X65	Y65	Z65	X66	Y66	Z66	X67	Y67	Z67	X68	Y68	Z68	X69	Y69	Z69	X70	Y70	Z70	X71	Y71	Z71
286	0.7125	-358.181	735.618	490.472	-371.548	734.805	277.132	-512.124	848.184	476.504	-501.773	882.879	389.311	-522.200	852.951	315.348	-382.652	796.868	547.781	-400.382	654.135	588.066	-404.684	794.317	223.099	-427.310	648.185	182.308	-353.582	588.465	577.645	-300.717	643.492	569.701	-217.786	546.431	574.454	-262.047	506.479	576.512	-164.072	416.047	563.078	-148.600	398.079	421.436	-259.175	328.610	574.766	-196.147	282.136	568.777	-264.221	199.860	557.471	-316.020	239.035	566.907	-476.632	95.034	502.004	-407.970	104.988	556.499	-382.406	89.319	456.421	-283.085	33.320	581.012	-260.787	27.962	486.191	-374.571	548.789	194.079	-327.866	607.431	172.285	-233.301	529.666	162.996	-273.037	477.598	182.875	-170.673	428.832	164.365	-156.748	402.718	305.993	-296.079	336.079	166.455	-237.538	294.912	158.506	-296.197	210.433	176.360	-347.600	238.012	183.167	-487.947	79.425	248.095	-413.957	97.260	193.941	-392.737	100.216	292.876	-280.773	25.956	168.046	-255.899	30.445	257.127	-452.131	953.290	385.981	-225.924	1200.628	383.020	-328.757	1129.924	487.036	-327.173	1130.419	292.731	-184.152	1413.337	400.110	-37.669	1380.681	397.587	-118.702	1333.004	297.398	-135.454	1322.922	485.283	-139.247	1157.834	541.132	-191.270	1010.703	642.954	-234.470	1125.597	688.158	-262.924	1030.414	711.772	-341.766	983.974	773.057	-405.248	1037.290	717.239	-329.158	889.604	678.456	-409.049	888.237	771.142	-401.104	822.834	691.776	-463.777	817.190	605.484	-440.140	764.317	678.544	-405.946	767.941	613.409	-142.127	1170.161	232.435	-195.466	1008.497	123.833	-247.407	1119.237	75.571	-273.500	1021.199	55.017	-320.951	977.353	14.031	-406.724	1026.389	63.744	-380.046	914.995	147.321	-358.949	860.520	30.199	-409.695	824.314	109.089	-436.923	769.006	98.802	-471.467	825.857	157.820	-428.023	785.966	161.813
287	0.7150	-355.949	740.234	490.276	-369.956	739.345	276.891	-510.142	852.430	476.747	-500.288	886.929	389.434	-521.125	857.814	315.216	-380.339	801.504	547.449	-397.914	658.430	587.908	-402.945	798.844	223.403	-425.942	652.089	182.480	-352.131	591.750	577.753	-298.383	646.673	569.633	-216.666	548.421	574.402	-261.468	508.831	576.600	-164.245	417.367	563.220	-148.380	399.387	421.820	-259.476	329.529	574.789	-196.417	283.447	568.926	-264.255	200.791	557.629	-316.080	239.729	566.818	-476.133	95.840	501.898	-407.613	105.568	556.438	-382.098	89.806	456.485	-282.923	33.330	580.988	-260.571	27.881	486.167	-374.070	552.030	194.054	-326.875	610.143	172.040	-233.042	531.439	162.556	-273.265	479.762	182.665	-171.055	430.150	163.495	-157.012	403.914	305.376	-296.703	336.992	166.160	-238.018	296.137	157.985	-296.382	211.348	176.044	-347.821	238.601	183.021	-487.606	80.037	248.125	-413.690	97.714	193.823	-392.348	100.647	292.749	-280.684	25.851	167.965	-255.530	30.559	256.933	-451.392	957.611	385.975	-227.597	1207.343	382.968	-329.983	1135.226	486.381	-328.194	1136.140	292.867	-186.140	1421.129	400.327	-39.610	1388.361	397.744	-120.641	1340.750	297.520	-137.433	1330.545	485.400	-140.908	1166.319	540.969	-191.445	1019.688	644.056	-236.553	1134.563	687.308	-263.928	1039.256	712.021	-342.146	992.258	773.123	-405.974	1044.168	716.834	-327.471	897.722	678.957	-408.058	895.348	770.952	-398.535	829.665	691.895	-460.218	822.710	605.005	-436.552	770.574	678.531	-401.106	773.511	613.117	-143.400	1178.351	232.830	-196.072	1016.728	123.671	-248.336	1127.201	75.793	-274.170	1029.156	55.129	-321.694	985.418	14.035	-407.437	1033.727	64.215	-379.132	922.409	147.697	-358.086	868.408	30.126	-408.296	831.452	109.511	-435.063	775.760	99.128	-469.424	832.188	158.849	-425.837	791.854	162.581
288	0.7175	-353.685	744.934	490.148	-368.149	743.972	276.797	-508.217	856.649	476.993	-498.792	891.190	389.558	-519.585	862.061	315.264	-377.952	806.267	547.181	-395.560	662.592	587.635	-400.969	803.495	223.716	-425.047	655.930	182.781	-350.645	595.167	577.810	-296.074	649.566	569.670	-215.630	550.498	574.156	-260.889	511.285	576.705	-164.452	418.753	563.403	-148.740	400.540	421.939	-259.910	330.736	574.891	-196.763	284.786	569.249	-264.166	201.614	557.754	-316.172	240.644	566.826	-475.688	96.600	501.887	-407.220	106.121	556.443	-381.651	90.299	456.470	-282.767	33.322	580.981	-260.347	27.832	486.183	-373.646	555.492	193.722	-325.739	613.026	171.768	-232.805	533.320	162.198	-273.425	482.050	182.345	-171.627	431.502	163.052	-157.331	405.258	304.746	-297.291	337.784	165.799	-238.534	296.810	157.695	-296.508	212.191	175.699	-348.117	239.479	182.728	-487.234	80.712	248.036	-413.428	98.169	193.713	-391.985	101.225	292.567	-280.591	25.750	167.861	-255.185	30.694	256.721	-450.586	961.928	386.059	-229.383	1214.348	382.970	-331.369	1140.840	485.851	-329.273	1141.994	292.987	-188.107	1428.785	400.525	-41.576	1396.117	397.934	-122.595	1348.544	297.690	-139.552	1338.341	485.600	-142.710	1175.112	540.830	-191.751	1028.652	645.171	-238.736	1143.610	686.457	-265.042	1048.199	712.195	-342.687	1000.643	773.205	-406.991	1051.220	716.199	-325.655	905.823	679.479	-407.230	902.500	770.716	-396.126	836.673	691.971	-456.578	828.497	604.420	-433.076	777.083	678.393	-398.602	778.876	612.377	-144.783	1186.666	233.166	-196.553	1024.898	123.499	-249.302	1135.281	75.978	-274.900	1037.237	55.212	-322.290	993.514	13.962	-408.155	1041.162	64.626	-378.177	929.917	148.056	-357.666	876.314	30.170	-406.697	838.711	109.956	-433.407	782.832	99.573	-467.014	838.644	160.231	-423.483	797.973	163.330
289	0.7200	-351.346	749.785	490.105	-366.134	748.674	276.863	-506.274	861.016	477.253	-496.731	895.008	389.806	-517.003	865.132	315.994	-375.681	811.121	546.866	-393.158	666.688	587.547	-399.118	808.128	224.008	-423.356	660.181	182.792	-349.105	598.691	578.026	-293.948	652.471	569.734	-214.176	552.637	574.202	-260.302	513.739	576.859	-164.613	420.262	563.484	-148.846	401.675	422.205	-260.335	331.696	575.012	-196.954	285.676	569.438	-264.184	202.939	558.054	-316.329	241.623	566.899	-475.235	97.369	501.931	-406.875	106.707	556.454	-381.200	90.958	456.494	-282.584	33.328	580.979	-260.138	27.776	486.168	-372.932	559.102	193.331	-324.700	616.038	171.424	-232.599	535.284	161.724	-273.837	484.399	182.200	-172.254	432.885	162.675	-156.900	406.624	304.172	-297.955	338.775	165.515	-239.069	298.070	157.214	-295.871	212.282	174.883	-348.438	240.233	182.528	-486.879	81.512	247.914	-413.146	98.607	193.543	-391.642	101.685	292.375	-280.476	25.672	167.753	-254.972	30.697	256.573	-449.700	966.336	386.139	-231.128	1221.187	382.927	-332.723	1146.503	485.355	-330.455	1147.944	293.178	-190.032	1436.554	400.715	-43.541	1403.830	398.154	-124.522	1356.408	297.839	-141.573	1346.129	485.729	-144.785	1183.860	540.900	-192.187	1037.713	646.404	-240.941	1152.652	685.556	-266.173	1057.258	712.455	-343.315	1009.176	773.299	-408.012	1058.254	715.486	-323.989	914.093	680.048	-406.595	909.831	770.406	-393.720	843.910	692.051	-452.831	834.295	603.794	-429.493	783.862	678.265	-394.787	784.540	611.796	-146.159	1195.032	233.528	-197.061	1033.221	123.273	-250.326	1143.531	76.200	-275.646	1045.349	55.256	-322.887	1001.739	13.912	-408.894	1048.691	64.990	-377.278	937.709	148.409	-356.981	884.193	30.278	-404.245	846.445	110.485	-429.495	790.457	99.245	-464.912	845.306	161.333	-421.298	804.112	164.138
